<svg
  xmlns="http://www.w3.org/2000/svg"
  viewBox="0 0 32 32"
  fill="currentColor"
  class="w-10 h-10 text-green-500"
>
  <path d="M16 0C7.163 0 0 7.163 0 16c0 2.855.75 5.635 2.17 8.102L.005 31.995l7.874-2.319A15.921 15.921 0 0016 32c8.837 0 16-7.163 16-16S24.837 0 16 0zm7.746 22.168c-.331.924-1.644 1.694-2.558 1.92-.686.168-1.588.299-4.58-.963-3.858-1.608-6.35-5.573-6.54-5.837-.19-.263-1.559-2.076-1.559-3.963 0-1.888.994-2.82 1.347-3.196a1.32 1.32 0 01.974-.455c.242 0 .486.01.698.019.226.01.528-.085.826.63.308.729 1.048 2.522 1.14 2.7.091.176.151.384.031.62-.12.236-.18.383-.356.585-.176.202-.372.452-.533.607-.184.179-.376.372-.162.73.214.358.951 1.566 2.042 2.54 1.403 1.251 2.573 1.641 2.932 1.82.36.179.569.151.78-.091.211-.243.93-1.079 1.18-1.45.25-.372.502-.3.854-.179.351.12 2.228 1.049 2.609 1.237.381.188.635.28.727.435.091.155.091.89-.24 1.814z" />
</svg>