<svg
  xmlns="http://www.w3.org/2000/svg"
  viewBox="0 0 32 32"
  className="w-8 h-8"
  fill="white"
>
  <path
    d="M16 0C7.163 0 0 7.163 0 16c0 2.803.73 5.534 2.113 7.946L0 32l8.256-2.144A15.925 15.925 0 0 0 16 32c8.837 0 16-7.163 16-16S24.837 0 16 0zm7.793 22.16c-.337.944-1.956 1.796-2.727 1.898-.77.1-1.68.145-2.677-.15-.615-.172-1.406-.446-2.406-.93-4.233-2.037-6.984-5.765-7.18-6.035-.195-.27-1.71-2.284-1.71-4.352 0-2.067 1.08-3.087 1.46-3.507.38-.42.82-.53 1.094-.53.272 0 .546.003.784.014.247.01.58-.094.91.692.337.806 1.15 2.778 1.25 2.975.097.195.165.421.032.681-.13.26-.195.42-.39.644-.195.223-.42.503-.603.674-.2.182-.41.38-.18.748.23.37 1.02 1.685 2.195 2.725 1.513 1.271 2.792 1.662 3.158 1.844.366.182.58.155.795-.095.216-.25.92-1.05 1.165-1.41.25-.365.503-.305.85-.183.346.122 2.19 1.03 2.565 1.22.376.185.63.275.725.43.097.155.097.894-.24 1.838z" />
</svg>